Coordinates
version=1
nRows=31
nColumns=34
inDegrees=no

Units are S.I. units (second, meters, Newtons, ...)
If the header above contains a line with 'inDegrees', this indicates whether rotational values are in degrees (yes) or radians (no).

endheader
time	pelvis_tilt	pelvis_list	pelvis_rotation	pelvis_tx	pelvis_ty	pelvis_tz	hip_flexion_r	hip_adduction_r	hip_rotation_r	knee_angle_r	ankle_angle_r	subtalar_angle_r	mtp_angle_r	hip_flexion_l	hip_adduction_l	hip_rotation_l	knee_angle_l	ankle_angle_l	subtalar_angle_l	mtp_angle_l	lumbar_extension	lumbar_bending	lumbar_rotation	arm_flex_r	arm_add_r	arm_rot_r	elbow_flex_r	pro_sup_r	arm_flex_l	arm_add_l	arm_rot_l	elbow_flex_l	pro_sup_l
0.94	0.0142568	0.0314263	-0.0219192	1.00179	0.972011	-0.223662	0.426564	-0.052946	-0.0881046	0.873915	0.0973419	-0.12845	-0.020774	0.0307599	-0.0161324	-0.117009	0.253247	0.233878	0.0566577	-0.0106617	-0.227053	-0.410185	-0.00841414	0.156572	-0.168259	0.178889	0.711219	1.64047	0.352202	-0.300354	0.0892439	0.563114	1.70832
0.95	0.0133322	0.0246256	-0.0154154	1.01179	0.972584	-0.224452	0.431275	-0.0494954	-0.104232	0.823703	0.0961286	-0.122749	-0.020825	0.0114367	-0.0216955	-0.113015	0.236189	0.23831	0.0664661	-0.0106374	-0.23007	-0.396694	-0.0213234	0.150665	-0.170424	0.173821	0.704793	1.65078	0.359082	-0.29755	0.0991492	0.580335	1.70509
0.96	0.0127103	0.0186089	-0.00862681	1.02181	0.972894	-0.225281	0.434557	-0.0470699	-0.120177	0.771358	0.0949117	-0.113916	-0.020876	-0.00800036	-0.026545	-0.108936	0.219353	0.242917	0.0759921	-0.0106131	-0.233404	-0.38352	-0.0345311	0.144797	-0.172963	0.168626	0.698936	1.66162	0.366194	-0.295215	0.110792	0.5972	1.70124
0.97	0.0124799	0.0134457	-0.00171921	1.03189	0.972947	-0.226137	0.436387	-0.0455577	-0.135469	0.717002	0.0934359	-0.101293	-0.0209269	-0.0277686	-0.0305941	-0.10483	0.202597	0.24764	0.0851442	-0.0105888	-0.237051	-0.370773	-0.047792	0.138946	-0.175823	0.163219	0.693625	1.67208	0.373609	-0.293292	0.124004	0.613517	1.69716
0.98	0.0127206	0.00914929	0.00512062	1.04201	0.972754	-0.227004	0.436721	-0.0447805	-0.14957	0.660716	0.0913306	-0.0845625	-0.0209778	-0.0480657	-0.0338313	-0.100796	0.185814	0.252439	0.0938844	-0.0105646	-0.24099	-0.358504	-0.0608327	0.133099	-0.178973	0.157568	0.688825	1.68129	0.381377	-0.291709	0.138581	0.629093	1.69329
0.99	0.0134844	0.00568564	0.0116964	1.0522	0.972325	-0.227863	0.435524	-0.0445148	-0.161885	0.602578	0.0881851	-0.0637956	-0.0210287	-0.069035	-0.0363111	-0.0969689	0.16896	0.257291	0.102225	-0.0105404	-0.245176	-0.346711	-0.0733743	0.127254	-0.182393	0.151697	0.684489	1.68852	0.389524	-0.290384	0.15429	0.643746	1.69011
1	0.0147804	0.00297962	0.0178187	1.06248	0.971671	-0.228694	0.432789	-0.0445245	-0.17178	0.542728	0.08365	-0.0394549	-0.0210795	-0.0907327	-0.0381371	-0.0935017	0.152075	0.262195	0.110215	-0.0105162	-0.249532	-0.335355	-0.0851593	0.121425	-0.18607	0.145673	0.680548	1.69328	0.398051	-0.289237	0.170883	0.657326	1.68801
1.01	0.0165676	0.00092638	0.0233252	1.07285	0.970802	-0.229478	0.428585	-0.0445996	-0.178629	0.481439	0.077545	-0.0123499	-0.0211303	-0.113098	-0.0394375	-0.0905421	0.135294	0.26716	0.117923	-0.0104921	-0.253945	-0.324383	-0.0959776	0.115637	-0.189991	0.139589	0.676923	1.69537	0.406929	-0.288197	0.188094	0.669722	1.68727
1.02	0.0187496	-0.000586419	0.0280979	1.08333	0.969729	-0.230193	0.423077	-0.0445908	-0.181887	0.419195	0.0699499	0.0164484	-0.0211811	-0.135938	-0.040342	-0.088211	0.118857	0.272209	0.125413	-0.010468	-0.258262	-0.313741	-0.105685	0.109922	-0.194131	0.133543	0.673524	1.6949	0.416102	-0.287205	0.205652	0.680878	1.68795
1.03	0.0211735	-0.00166151	0.0320738	1.09393	0.96846	-0.230822	0.41656	-0.044435	-0.181176	0.356757	0.0612534	0.045726	-0.0212319	-0.158926	-0.0409623	-0.0865881	0.103095	0.277365	0.132727	-0.010444	-0.262295	-0.303392	-0.114213	0.104317	-0.198457	0.127623	0.670259	1.69224	0.425485	-0.286217	0.223286	0.690791	1.68997
1.04	0.0236411	-0.00238645	0.035247	1.10465	0.967005	-0.231349	0.409452	-0.0441626	-0.176389	0.2952	0.0521406	0.0742608	-0.0212826	-0.18163	-0.0413833	-0.0857102	0.0884167	0.282649	0.139879	-0.0104199	-0.265838	-0.293316	-0.12157	0.09886	-0.202919	0.121895	0.667044	1.68795	0.434963	-0.285201	0.240724	0.699513	1.69309
1.05	0.0259324	-0.00283693	0.0376613	1.11549	0.965376	-0.231759	0.402277	-0.0438795	-0.167772	0.235904	0.0435113	0.100951	-0.0213333	-0.203555	-0.0416683	-0.0855853	0.0752708	0.288082	0.146865	-0.010396	-0.268684	-0.283506	-0.127822	0.0935864	-0.207462	0.116403	0.663804	1.68269	0.444395	-0.284138	0.257704	0.707136	1.69699
1.06	0.0278361	-0.00308292	0.0393981	1.12646	0.963588	-0.232043	0.395614	-0.0437235	-0.155976	0.180495	0.0363364	0.124921	-0.021384	-0.224211	-0.0418813	-0.08622	0.0641088	0.293678	0.153685	-0.010372	-0.270663	-0.273943	-0.133082	0.0885312	-0.212028	0.111167	0.660481	1.6771	0.453616	-0.283016	0.273971	0.713786	1.70141
1.07	0.0291867	-0.00320819	0.0405626	1.13756	0.961664	-0.232193	0.390025	-0.0438048	-0.142043	0.130719	0.0314727	0.145577	-0.0214346	-0.243173	-0.0421179	-0.0876519	0.055342	0.299454	0.160372	-0.0103481	-0.271664	-0.264566	-0.137478	0.0837326	-0.216561	0.106188	0.657035	1.67174	0.46244	-0.28183	0.289273	0.719605	1.70613
1.08	0.0298966	-0.00333848	0.0412711	1.14879	0.959635	-0.232207	0.385981	-0.0441466	-0.127317	0.0882676	0.0294693	0.162614	-0.0214853	-0.260148	-0.0425368	-0.0899774	0.049306	0.305423	0.167019	-0.0103242	-0.271665	-0.255244	-0.141136	0.0792353	-0.221019	0.101458	0.65345	1.66694	0.470669	-0.280579	0.303368	0.724751	1.7111
1.09	0.0299752	-0.00366166	0.0416426	1.16014	0.957538	-0.232087	0.383775	-0.0446427	-0.11328	0.0545705	0.0304067	0.175967	-0.0215359	-0.275006	-0.0433834	-0.0933627	0.0462378	0.311593	0.173792	-0.0103004	-0.270747	-0.245765	-0.144169	0.0750932	-0.22537	0.0969598	0.649727	1.66282	0.478103	-0.279263	0.316018	0.729387	1.71635
1.1	0.0295351	-0.00443554	0.0417964	1.17163	0.955414	-0.231833	0.383457	-0.0450418	-0.10135	0.0305958	0.0338066	0.185721	-0.0215865	-0.2878	-0.0449991	-0.0980326	0.0462694	0.317954	0.18092	-0.0102766	-0.269096	-0.235824	-0.146666	0.0713675	-0.229599	0.0926766	0.64589	1.65926	0.484542	-0.277883	0.327004	0.733682	1.72198
1.11	0.0287842	-0.00597995	0.0418564	1.18326	0.953309	-0.231448	0.384808	-0.0449633	-0.0926872	0.0166893	0.0386418	0.192019	-0.021637	-0.298749	-0.0478132	-0.104235	0.049439	0.324466	0.188663	-0.0102528	-0.266996	-0.225047	-0.148699	0.0681218	-0.233699	0.0885868	0.64198	1.65591	0.489808	-0.276442	0.336138	0.737794	1.7281
1.12	0.0280024	-0.00865207	0.0419587	1.19504	0.951264	-0.230934	0.387345	-0.0439399	-0.0880366	0.0124971	0.0434591	0.194993	-0.0216876	-0.30819	-0.0523176	-0.112187	0.0557219	0.331033	0.197255	-0.0102291	-0.26479	-0.213016	-0.150328	0.0654129	-0.237667	0.0846647	0.638047	1.65231	0.493746	-0.274942	0.343294	0.741866	1.73476
1.13	0.0275042	-0.0128093	0.0422591	1.20698	0.949313	-0.230287	0.390384	-0.0414768	-0.087665	0.0169931	0.0466037	0.194732	-0.0217381	-0.316513	-0.0590278	-0.122002	0.065076	0.337486	0.206832	-0.0102054	-0.262851	-0.199317	-0.151609	0.0632814	-0.241493	0.0808774	0.634144	1.64792	0.496241	-0.273392	0.348436	0.746005	1.74196
1.14	0.0276208	-0.0187929	0.0429354	1.2191	0.947531	-0.229502	0.393156	-0.0371221	-0.0913919	0.0286143	0.0465119	0.19132	-0.0217886	-0.324058	-0.0684312	-0.133625	0.0774921	0.343551	0.217352	-0.0101818	-0.261513	-0.183596	-0.152604	0.0617429	-0.245147	0.0771827	0.630317	1.64229	0.497223	-0.271807	0.351637	0.750278	1.74958
1.15	0.0286133	-0.0268488	0.0441822	1.23141	0.945956	-0.228576	0.394918	-0.0305191	-0.0987047	0.0454931	0.0420196	0.184906	-0.0218391	-0.331047	-0.0809422	-0.146776	0.0930478	0.348827	0.228522	-0.0101581	-0.261041	-0.165588	-0.153381	0.0607844	-0.248576	0.0735281	0.626592	1.63514	0.496668	-0.270222	0.353092	0.754702	1.75745
1.16	0.0306427	-0.0371082	0.0461943	1.24391	0.944614	-0.227512	0.3951	-0.0214628	-0.108925	0.0657337	0.0326254	0.175798	-0.0218896	-0.33749	-0.0968456	-0.16092	0.111943	0.352763	0.23975	-0.0101346	-0.261581	-0.145171	-0.154015	0.0603648	-0.251701	0.0698522	0.62297	1.62646	0.494599	-0.268686	0.353114	0.759252	1.76535
1.17	0.0337188	-0.0495549	0.0491411	1.25659	0.943516	-0.226316	0.393409	-0.00993757	-0.121373	0.0876834	0.0186479	0.164531	-0.02194	-0.343142	-0.116249	-0.175275	0.134516	0.354641	0.250139	-0.010111	-0.263136	-0.122388	-0.154578	0.0604205	-0.254416	0.0660886	0.619429	1.61651	0.491072	-0.267274	0.352104	0.763878	1.77305
1.18	0.0376751	-0.0640086	0.0531268	1.26943	0.94266	-0.224997	0.389891	0.00386313	-0.13549	0.110138	0.00123534	0.151871	-0.0219904	-0.347479	-0.139049	-0.188869	0.161232	0.353587	0.258539	-0.0100875	-0.265552	-0.0974612	-0.155136	0.0608739	-0.256607	0.0621725	0.615928	1.60579	0.486169	-0.266075	0.350521	0.768515	1.78035
1.19	0.0422294	-0.0801507	0.0581672	1.2824	0.942028	-0.223567	0.384948	0.019544	-0.150882	0.132434	-0.0177836	0.138762	-0.0220408	-0.349707	-0.164913	-0.200638	0.192632	0.348604	0.263644	-0.0100641	-0.268498	-0.0707899	-0.155728	0.0616455	-0.258162	0.058049	0.612419	1.59495	0.479988	-0.265192	0.348837	0.773105	1.7871
1.2	0.0469721	-0.097544	0.0641628	1.29546	0.941586	-0.222039	0.379272	0.0365493	-0.167297	0.154415	-0.0361824	0.126217	-0.0220912	-0.348838	-0.193279	-0.209536	0.22926	0.338632	0.26413	-0.0100407	-0.271513	-0.0429214	-0.156353	0.0626658	-0.258992	0.0536839	0.608863	1.58465	0.472636	-0.264725	0.347497	0.7776	1.79321
1.21	0.0514045	-0.115677	0.070888	1.30857	0.941291	-0.220421	0.373714	0.0542318	-0.184563	0.176296	-0.0516945	0.11519	-0.0221416	-0.34381	-0.223403	-0.214667	0.271567	0.322655	0.258824	-0.0100173	-0.27406	-0.0144929	-0.156951	0.0638867	-0.259051	0.0490737	0.605243	1.57548	0.464222	-0.264755	0.346885	0.781963	1.79861
1.22	0.0550092	-0.134027	0.0780036	1.32167	0.941095	-0.218719	0.369116	0.0719453	-0.202509	0.198448	-0.0623753	0.106481	-0.0221919	-0.333634	-0.254429	-0.215393	0.319809	0.299845	0.246881	-0.00999402	-0.275609	0.013846	-0.157395	0.0652898	-0.258352	0.0442549	0.601575	1.56783	0.454863	-0.265324	0.3473	0.786159	1.80322
1.23	0.0573351	-0.15212	0.0850933	1.33474	0.940954	-0.216934	0.366133	0.0891368	-0.22091	0.221171	-0.0668867	0.100654	-0.0222422	-0.31756	-0.285474	-0.211417	0.373953	0.269728	0.227951	-0.00997077	-0.275725	0.0415099	-0.157498	0.0668858	-0.256976	0.039308	0.597913	1.5619	0.444683	-0.266422	0.348937	0.790149	1.80699
1.24	0.0580783	-0.169582	0.091714	1.34773	0.940835	-0.215069	0.365103	0.105412	-0.239451	0.244527	-0.0646522	0.0980131	-0.0222926	-0.295211	-0.315702	-0.202813	0.433617	0.232362	0.2023	-0.00994757	-0.274137	0.0680284	-0.157025	0.0687077	-0.255064	0.0343565	0.594349	1.55768	0.433818	-0.267981	0.351888	0.793876	1.80984
